<?xml version="1.0" encoding="utf-8"?>
<!-- Generator: Adobe Illustrator 16.0.0, SVG Export Plug-In . SVG Version: 6.00 Build 0)  -->
<!DOCTYPE svg PUBLIC "-//W3C//DTD SVG 1.1//EN" "http://www.w3.org/Graphics/SVG/1.1/DTD/svg11.dtd">
<svg version="1.1" xmlns="http://www.w3.org/2000/svg" xmlns:xlink="http://www.w3.org/1999/xlink" x="0px" y="0px" width="500px"
	 height="500px" viewBox="0 0 500 500" enable-background="new 0 0 500 500" xml:space="preserve">
<g id="BACKGROUND">
	<rect fill="#FFFFFF" width="500" height="500"/>
</g>
<g id="OBJECTS">
	<path fill="#FFDCDC" d="M339.722,375.331c-43.337,11.783-89.102,11.654-133.776,7.048c-24.761-2.554-49.691-6.542-72.551-16.393
		c-22.859-9.851-43.689-26.127-54.942-48.33C67.2,295.454,66.935,266.97,81.325,246.66c17.139-24.19,48.94-31.55,76.011-43.637
		c10.028-4.478,20.449-10.663,24.213-20.98c5.449-14.935-5.424-30.707-17.012-41.589s-25.443-21.689-28.111-37.361
		c-2.63-15.45,7.313-31.019,20.779-39.038c13.465-8.02,29.724-9.804,45.396-9.769c18.781,0.042,39.521,3.459,51.412,17.997
		c10.227,12.503,11.296,30.1,18.853,44.375c9.436,17.823,29.664,29.343,49.807,28.365c12.907-0.627,25.384-5.915,38.299-5.47
		c22.13,0.763,41.791,20.942,41.979,43.084c0.094,11.087-4.018,21.721-6.166,32.599c-2.148,10.877-1.926,23.313,5.425,31.614
		c13.729,15.503,67.599,14.567,52.648,48.639c-5.731,13.063-19.561,24.616-29.836,34.098
		c-11.183,10.318-23.731,19.117-37.065,26.427C372.733,364.356,356.467,370.777,339.722,375.331z"/>
	<g>
		<g>
			<path fill="#F95F5F" d="M131.466,443.394h53.958c3.072-5.938,0.546-13.055-2.672-18.916c-3.218-5.86-7.516-11.32-8.946-17.852
				c-0.905-4.132-0.592-8.426-1.037-12.632c-0.445-4.206-1.861-8.632-5.272-11.132c-4.522-3.315-11.07-2.261-15.88-5.143
				c-4.206-2.521-6.238-7.588-6.795-12.459c-0.557-4.872,0.072-9.805-0.229-14.698c-0.301-4.894-1.741-10.054-5.501-13.2
				c-5.735-4.799-14.941-3.468-20.546-8.418c-3.793-3.351-5.028-8.831-8.559-12.457c-4.258-4.37-11.762-5.066-16.751-1.554
				c-4.99,3.513-6.864,10.812-4.185,16.294c1.824,3.731,5.425,6.585,6.341,10.636c1.68,7.427-6.397,14.026-5.976,21.629
				c0.342,6.169,6.03,10.518,11.33,13.694s11.26,6.703,12.837,12.677c2.095,7.934-4.687,16.055-3.101,24.104
				c1.167,5.926,6.448,9.975,11.046,13.891C126.127,431.774,132.39,437.425,131.466,443.394z"/>
			<g>
				<path fill="#FFA6A6" d="M100.69,444.227c0.732,0,1.465,0,2.198,0h41.385c3.138-8.157-0.925-18.055-8.164-22.952
					c-4.461-3.019-10.352-4.369-13.287-8.886c-3.224-4.958-1.542-11.767-4.052-17.122c-2.371-5.056-7.917-7.734-13.2-9.544
					s-10.968-3.284-14.957-7.192c-5.326-5.218-6.302-13.447-10.533-19.586c-3.138-4.554-8.464-7.899-13.976-7.451
					s-10.614,5.505-10.016,11.002c0.719,6.604,8.576,11.498,7.428,18.04c-0.67,3.816-4.21,6.357-6.287,9.628
					c-3.739,5.889-1.915,14.612,3.871,18.51c3.259,2.196,7.275,2.867,10.963,4.225c3.688,1.358,7.43,3.878,8.208,7.73
					c0.771,3.828-1.63,7.615-1.587,11.52c0.051,4.565,3.527,8.529,7.632,10.527C90.421,444.672,96.125,444.227,100.69,444.227z"/>
			</g>
		</g>
	</g>
	<g>
		<g>
			<path fill="#F95F5F" d="M357.013,443.602h39.371c22.958-31.318,46.066-74.101,44.844-112.913
				C387.504,346.498,355.698,415.905,357.013,443.602z"/>
			<g>
				<path fill="#FFA6A6" d="M384.208,443.602h29.183c19.643-20.584,38.336-50.372,37.43-79.139
					C411,376.18,383.234,423.073,384.208,443.602z"/>
			</g>
		</g>
	</g>
	<g>
		<g>
			<path fill="#2C2A6E" d="M330.726,442.682h-136.04c-9.889,0-17.905-8.017-17.905-17.905V130.865
				c0-9.889,8.016-17.905,17.905-17.905h136.04c9.889,0,17.905,8.017,17.905,17.905v293.912
				C348.631,434.666,340.615,442.682,330.726,442.682z"/>
			<path fill="#FFFFFF" d="M342.906,137.659v280.328c0,6.117-4.966,11.083-11.083,11.083H193.596
				c-6.129,0-11.083-4.966-11.083-11.083V137.659c0-6.128,4.955-11.083,11.083-11.083h37.348c1.198,0,2.16,0.963,2.16,2.149v1.75
				c0,3.44,2.794,6.234,6.234,6.234h46.741c3.44,0,6.234-2.794,6.234-6.234v-1.75c0-1.186,0.963-2.149,2.149-2.149h37.359
				C337.94,126.576,342.906,131.531,342.906,137.659z"/>
			<path fill="#FFDCDC" d="M342.906,137.659v9.522H182.513v-9.522c0-6.128,4.955-11.083,11.083-11.083h37.348
				c1.198,0,2.16,0.963,2.16,2.149v1.75c0,3.44,2.794,6.234,6.234,6.234h46.741c3.44,0,6.234-2.794,6.234-6.234v-1.75
				c0-1.186,0.963-2.149,2.149-2.149h37.359C337.94,126.576,342.906,131.531,342.906,137.659z"/>
			<g>
				<g>
					<rect x="328.724" y="134.325" width="1.169" height="6.737"/>
					<rect x="326.864" y="136.062" width="1.17" height="5"/>
					<rect x="325.004" y="137.693" width="1.17" height="3.369"/>
					<path d="M200.181,134.622c-1.99,0-3.872,0.739-4.575,1.798c-0.16,0.242-0.094,0.569,0.148,0.73
						c0.089,0.059,0.19,0.088,0.292,0.088c0.17,0,0.337-0.083,0.439-0.236c0.502-0.757,2.091-1.327,3.695-1.327
						c1.604,0,3.193,0.57,3.696,1.328c0.161,0.243,0.487,0.306,0.731,0.146c0.242-0.161,0.308-0.488,0.146-0.73
						C204.051,135.361,202.17,134.622,200.181,134.622z"/>
					<path d="M200.181,136.707c-1.417,0-2.68,0.521-3.218,1.331c-0.161,0.242-0.095,0.569,0.148,0.73
						c0.24,0.157,0.569,0.097,0.73-0.148c0.275-0.414,1.124-0.86,2.339-0.86s2.064,0.446,2.339,0.86
						c0.102,0.153,0.27,0.235,0.439,0.235c0.101,0,0.202-0.029,0.292-0.087c0.243-0.162,0.309-0.489,0.148-0.73
						C202.862,137.228,201.599,136.707,200.181,136.707z"/>
					<circle cx="200.181" cy="139.717" r="1.049"/>
				</g>
			</g>
		</g>
		<g>
			<path fill="#F95F5F" d="M288.955,205.937h-82.29v-23.175c0-3.71,3.008-6.717,6.718-6.717h75.572c3.71,0,6.717,3.007,6.717,6.717
				v16.458C295.671,202.929,292.665,205.937,288.955,205.937z"/>
			<path fill="#F95F5F" d="M288.955,303.513h-82.29v-23.175c0-3.71,3.008-6.718,6.718-6.718h75.572c3.71,0,6.717,3.008,6.717,6.718
				v16.458C295.671,300.506,292.665,303.513,288.955,303.513z"/>
			<path fill="#F95F5F" d="M281.733,333.088h-75.068V315.08c0-3.147,2.551-5.698,5.699-5.698h69.369
				c3.146,0,5.698,2.551,5.698,5.698v12.31C287.431,330.537,284.879,333.088,281.733,333.088z"/>
			<path fill="#FFA6A6" d="M244.188,237.288h83.26v-16.126c0-3.173-2.572-5.746-5.746-5.746h-77.514
				c-3.173,0-5.746,2.573-5.746,5.746v10.38C238.442,234.715,241.015,237.288,244.188,237.288z"/>
			<path fill="#FFA6A6" d="M244.188,360.504h83.26v-16.127c0-3.174-2.572-5.746-5.746-5.746h-77.514
				c-3.173,0-5.746,2.572-5.746,5.746v10.381C238.442,357.931,241.015,360.504,244.188,360.504z"/>
			<path fill="#FFA6A6" d="M263.801,264.345h63.647v-16.825c0-2.788-2.26-5.048-5.048-5.048h-58.6c-2.788,0-5.048,2.26-5.048,5.048
				v11.777C258.753,262.084,261.013,264.345,263.801,264.345z"/>
			<path fill="#FFA6A6" d="M311.417,413.456h-97.423c-7.414,0-13.445-6.031-13.445-13.445c0-7.413,6.032-13.445,13.445-13.445
				h97.423c7.414,0,13.445,6.032,13.445,13.445C324.863,407.424,318.832,413.456,311.417,413.456z M213.995,387.62
				c-6.833,0-12.391,5.559-12.391,12.391s5.559,12.391,12.391,12.391h97.423c6.833,0,12.392-5.559,12.392-12.391
				s-5.559-12.391-12.392-12.391H213.995z"/>
			<circle fill="#FFA6A6" cx="309.354" cy="400.01" r="7.176"/>
		</g>
		<g>
			<g>
				<circle fill="#FFA6A6" cx="301.139" cy="301.625" r="27.879"/>
				<g>
					<path fill="#F95F5F" d="M314.704,308.642c-0.354,1.545-0.938,2.99-1.714,4.281c-3.19,5.365-9.585,8.311-16.006,6.843
						c-6.409-1.466-10.888-6.898-11.43-13.116c-0.139-1.501-0.036-3.056,0.317-4.601L314.704,308.642z"/>
					<path fill="#FFFFFF" d="M314.704,308.642c-0.354,1.545-0.938,2.99-1.714,4.281l-27.436-6.273
						c-0.139-1.501-0.036-3.056,0.317-4.601L314.704,308.642z"/>
				</g>
				<path fill="#F95F5F" d="M323.07,294.3c-1.895-5.382-7.627-2.002-7.627-2.002s-2.7-6.083-7.37-2.803
					c-4.708,3.307,3.464,14.995,3.464,14.995S324.979,299.728,323.07,294.3z"/>
				<path fill="#F95F5F" d="M284.57,285.497c4.045-4.024,7.739,1.512,7.739,1.512s5.075-4.305,7.855,0.679
					c2.803,5.024-9.636,12-9.636,12S280.492,289.554,284.57,285.497z"/>
			</g>
			<g>
				<circle fill="#FFA6A6" cx="207.582" cy="201.376" r="17.664"/>
				<path fill="#F95F5F" d="M210.849,209.06c-4.919,1.849-9.804,0.153-9.878,0.127c-0.542-0.195-0.824-0.793-0.628-1.335
					c0.194-0.542,0.792-0.823,1.333-0.629l0,0c0.383,0.136,9.443,3.236,14.2-5.333c0.279-0.504,0.915-0.687,1.418-0.406
					c0.504,0.28,0.686,0.915,0.406,1.419C215.815,206.298,213.328,208.129,210.849,209.06z"/>
				<path fill="#F95F5F" d="M204.271,200.173c-0.359,0.135-0.761-0.047-0.896-0.406c-0.669-1.78-2.662-2.684-4.442-2.016
					c-1.78,0.669-2.684,2.662-2.015,4.441c0.135,0.36-0.047,0.761-0.407,0.896c-0.36,0.135-0.761-0.047-0.896-0.406
					c-0.938-2.499,0.331-5.295,2.829-6.233c2.499-0.939,5.295,0.33,6.233,2.829C204.813,199.637,204.631,200.038,204.271,200.173z"
					/>
				<path fill="#F95F5F" d="M217.041,195.375c-0.359,0.135-0.761-0.047-0.896-0.407c-0.669-1.78-2.662-2.684-4.441-2.016
					c-1.78,0.669-2.685,2.662-2.016,4.442c0.135,0.359-0.047,0.761-0.407,0.896c-0.359,0.135-0.761-0.047-0.896-0.406
					c-0.938-2.499,0.33-5.295,2.829-6.233c2.499-0.939,5.295,0.33,6.233,2.829C217.583,194.839,217.4,195.24,217.041,195.375z"/>
				
					<ellipse transform="matrix(0.9361 -0.3517 0.3517 0.9361 -55.2845 89.5427)" fill="#F95F5F" cx="218.817" cy="196.938" rx="2.461" ry="1.532"/>
				
					<ellipse transform="matrix(0.9361 -0.3517 0.3517 0.9361 -59.7217 82.1412)" fill="#F95F5F" cx="196.204" cy="205.434" rx="2.461" ry="1.532"/>
			</g>
		</g>
	</g>
	<g>
		<g>
			<g>
				<path fill="#1C1A38" d="M148.441,433.809c0,0,3.606,2.917,1.297,8.873h-32.495c0,0-0.851-2.472,1.296-3.769
					c2.147-1.296,16.774-5.104,16.774-5.104H148.441z"/>
				<path fill="#EDBB95" d="M131.858,422.626l3.456,11.183c0,0,6.28,1.782,13.127,0l-3.01-12.394L131.858,422.626z"/>
			</g>
			<g>
				<path fill="#1C1A38" d="M177.61,433.809c0,0,3.606,2.917,1.296,8.873h-32.494c0,0-0.851-2.472,1.296-3.769
					c2.147-1.296,16.774-5.104,16.774-5.104H177.61z"/>
				<path fill="#EDBB95" d="M163.591,422.95l0.892,10.859c0,0,6.28,1.782,13.127,0v-12.042L163.591,422.95z"/>
			</g>
			<path fill="#423E67" d="M124.05,303.021h32.332c0,0-17.711,44.046-19.488,58.831c-1.856,15.439,12.408,61.813,12.408,61.813
				c-7.349,3.829-19.559,1.523-19.559,1.523s-18.383-47.521-18.537-63.498C111.071,347.593,124.05,303.021,124.05,303.021z"/>
			<path fill="#423E67" d="M178.743,303.018l-0.116,120.881c0,0-1.423,0.453-3.615,0.907c-0.327,0.063-0.675,0.126-1.033,0.2
				c-4.016,0.737-9.897,1.286-14.557-0.433l-11.553-121.556H178.743z"/>
			<path fill="#506E98" d="M149.498,309.954c-0.041-0.608-0.994-0.612-0.952,0c0.294,4.338,0.589,8.675,0.883,13.012
				c0.042,0.608,0.994,0.613,0.952,0C150.086,318.628,149.792,314.292,149.498,309.954z"/>
			<path fill="#F1F7FF" d="M175.011,424.806c-0.327,0.063-0.675,0.126-1.033,0.2c-0.812-7.969-1.465-15.948-1.992-23.938
				c-1.064-16.56-1.518-33.15-1.349-49.741c0.158-16.117,0.917-32.244,2.245-48.309h1.054c-0.728,8.791-1.286,17.604-1.666,26.426
				c-0.717,16.581-0.812,33.183-0.285,49.763C172.471,394.427,173.472,409.648,175.011,424.806z"/>
		</g>
		<g>
			<g>
				<g>
					<path fill="#4B499E" d="M178.747,303.021c0,0-40.034,10.419-54.697,0l4.573-44.076c3.85-17.035,1.08-30.31,1.625-32.46
						c2.291-9.021,19.102-12.747,23.459-12.621c2.604,0.074,16.087-0.85,23.417,9.89c3.582,5.248,1.355,26.362,1.623,43.535
						C179.063,287.542,178.747,303.021,178.747,303.021z"/>
				</g>
			</g>
		</g>
		<path fill="#FFA6A6" d="M145.275,214.921l0.303,45.146l-15.609,55.036l-12.647-8.074c0,0,10.57-33.907,10.629-45.616
			C128.013,249.009,118.363,218.319,145.275,214.921z"/>
		<path fill="#FFA6A6" d="M158.429,213.609l-4.798,39.8l5.575,60.896l23.884-11.283c0,0-4.774-36.174-3.612-48.247
			C180.578,243.348,188.279,213.609,158.429,213.609z"/>
		<g>
			<path fill="#DEC3CE" d="M177.112,257.732c-0.267-0.156-0.552-0.041-0.721,0.189c-1.279,1.745-3.082,3.114-5.104,3.883
				c-0.266,0.102-0.449,0.355-0.368,0.648c0.07,0.255,0.381,0.47,0.648,0.368c2.3-0.874,4.278-2.383,5.733-4.367
				C177.469,258.224,177.34,257.866,177.112,257.732z"/>
			<path fill="#DEC3CE" d="M177.766,259.814c-0.232-0.136-0.595-0.067-0.721,0.189c-0.811,1.646-1.892,3.131-3.213,4.404
				c-0.489,0.471,0.256,1.216,0.746,0.745c1.38-1.33,2.531-2.898,3.378-4.617C178.081,260.28,178.024,259.965,177.766,259.814z"/>
		</g>
		<path fill="#EDBB95" d="M96.105,235.038c0,0-4.643-5.686-4.878-7.838s1.245-10.462,5.786-10.361
			c4.542,0.101,7.233,15.105,7.233,15.105L96.105,235.038z"/>
		<g>
			<g>
				<g>
					<path fill="#FFA6A6" d="M130.88,224.779c0,0-14.186,24.225-15.354,24.225s-10.148-17.734-10.148-17.734
						s-7.611,0.271-10.629,3.806c0,0,8.712,30.595,19.177,30.595s22.266-14.551,22.266-14.551L130.88,224.779z"/>
				</g>
			</g>
		</g>
		<g>
			<path fill="#1C1A38" d="M157.018,193.267c-0.395-1.824-0.323-3.735-0.079-5.59c0.243-1.855,0.655-3.679,0.938-5.527
				c0.176-1.146,0.3-2.334,0.041-3.46c-0.261-1.126-0.982-2.187-1.998-2.479c1.024-2.618-0.386-5.86-2.564-7.383
				s-4.942-1.645-7.482-1.165c-2.54,0.479-4.97,1.501-7.485,2.116c-3.728,0.91-7.634,0.907-11.361-0.009
				c-1.345-0.331-2.864-0.747-4.011,0.099c-0.781,0.575-1.18,1.621-1.325,2.646c-0.402,2.831,0.979,5.864,3.274,7.189
				c-0.663,0.656-0.935,1.705-0.852,2.685c0.083,0.98,0.482,1.897,0.984,2.709c1.88,3.043,5.125,4.718,8.365,5.574
				c3.239,0.854,6.598,1.029,9.849,1.829c2.191,0.539,4.324,1.36,6.537,1.773S155.001,194.357,157.018,193.267z"/>
			<path fill="#ECB58C" d="M154.247,184.966c0.981,11.171,3.551,30.947,3.551,30.947c-2.595,4.425-12.105,3.704-11.863,2.213
				c0.137-0.844-0.041-2.315-0.511-3.648c-0.365-1.032-0.909-1.981-1.614-2.491c-0.295-0.211-0.82-0.287-1.508-0.305
				c-0.111,0.002-0.171,0-0.171,0c-3.147-0.025-9.27,1.075-11.87-2.778c-3.235-4.791-3.38-17.987-2.923-24.339
				c0.265-3.634,3.476-8.683,9.787-9.689C144.837,173.643,153.261,173.725,154.247,184.966z"/>
			<path fill="#1C1A38" d="M144.249,180.044c0.007,1.703,1.72,3.192,3.407,2.962c0.66,2.702,1.872,5.268,3.539,7.495
				c0.479,0.64,1.065,1.293,1.854,1.425c0.864,0.145,1.711-0.398,2.26-1.081c1.135-1.412,1.33-3.337,1.454-5.145
				c0.153-2.229,0.267-4.492-0.199-6.677c-0.465-2.185-1.58-4.316-3.434-5.564c-1.943-1.308-4.411-1.493-6.752-1.566
				c-2.736-0.085-5.495-0.072-8.183,0.447s-5.321,1.572-7.387,3.368c-1.346,1.17-2.427,2.667-3.044,4.345
				c-0.264,0.717-0.55,1.589-0.518,2.365c0.032,0.752,0.518,0.986,1.188,1.155c3.449,0.871,7.206,0.603,10.545-0.585
				C140.883,182.31,142.679,181.321,144.249,180.044z"/>
			<path fill="#F8E8D3" d="M153.261,208.676c-2.745,1.288-5.662,2.157-8.664,2.581c-0.343,0.048-0.267,0.582,0.077,0.533
				c3.046-0.43,6.018-1.313,8.803-2.62C153.79,209.023,153.576,208.528,153.261,208.676z"/>
			<g>
				
					<ellipse transform="matrix(0.9897 -0.1432 0.1432 0.9897 -26.7813 20.5853)" fill="#E7998A" cx="129.631" cy="196.362" rx="1.913" ry="1.186"/>
				
					<ellipse transform="matrix(0.9897 -0.1432 0.1432 0.9897 -26.4864 21.9498)" fill="#E7998A" cx="139.239" cy="194.972" rx="1.913" ry="1.186"/>
				<path fill="#C89978" d="M134.733,196.883c-0.261-0.054-0.532-0.036-0.76,0.11c-0.212,0.137-0.323,0.4-0.321,0.646
					c0.003,0.254,0.114,0.499,0.291,0.68c0.184,0.189,0.407,0.316,0.644,0.429c0.128,0.061,0.304-0.017,0.351-0.148
					c0.051-0.145-0.012-0.286-0.148-0.351c-0.042-0.02-0.084-0.041-0.126-0.062c-0.021-0.011-0.041-0.022-0.062-0.033
					c0.051,0.027-0.016-0.01-0.021-0.013c-0.078-0.047-0.15-0.101-0.218-0.161c-0.007-0.006-0.016-0.015-0.021-0.021
					c-0.015-0.017-0.03-0.034-0.044-0.052c-0.014-0.018-0.026-0.037-0.04-0.055c-0.002-0.003-0.002-0.003-0.004-0.005
					c0-0.001,0,0-0.001-0.002c-0.018-0.04-0.035-0.078-0.051-0.118c-0.002-0.007-0.003-0.014-0.005-0.021
					c-0.003-0.02-0.006-0.04-0.008-0.059c0-0.004,0-0.004-0.001-0.007c0-0.014,0.004-0.038,0.005-0.047
					c0.002-0.015,0.004-0.031,0.009-0.046c0.003-0.007,0.006-0.013,0.008-0.017c0.002-0.005,0.012-0.024,0.018-0.039
					c0.004-0.006,0.009-0.013,0.014-0.019c0.003-0.005,0.007-0.009,0.011-0.014c0.011-0.009,0.039-0.031,0.04-0.032
					c-0.038,0.034-0.005,0.003,0.016-0.007c0.016-0.007,0.033-0.014,0.049-0.019c0.008-0.001,0.018-0.002,0.027-0.003
					c0.022-0.003,0.044-0.005,0.066-0.007c0.006,0,0.005-0.001,0.008-0.001c0.003,0,0.002,0.001,0.01,0.001
					c0.019,0.002,0.037,0.002,0.056,0.004c0.049,0.005,0.096,0.013,0.144,0.023c0.138,0.029,0.29-0.097,0.301-0.233
					C134.979,197.029,134.881,196.914,134.733,196.883z"/>
				
					<ellipse transform="matrix(0.9897 -0.1431 0.1431 0.9897 -26.1186 21.448)" fill="#362A14" cx="136.039" cy="192.292" rx="0.87" ry="1.191"/>
				<path fill="#1C1A38" d="M137.055,187.982c-0.819-0.384-1.801-0.338-2.57,0.146c-0.223,0.14-0.017,0.495,0.207,0.354
					c0.639-0.402,1.469-0.468,2.156-0.145c0.1,0.047,0.221,0.028,0.28-0.074C137.181,188.174,137.156,188.03,137.055,187.982z"/>
				<path fill="#1C1A38" d="M131.704,188.545c-0.956-0.367-2.048-0.124-2.769,0.599c-0.187,0.187,0.104,0.477,0.29,0.29
					c0.626-0.627,1.546-0.811,2.371-0.494c0.103,0.04,0.225-0.044,0.252-0.143C131.879,188.681,131.808,188.585,131.704,188.545z"/>
				
					<ellipse transform="matrix(0.9897 -0.1431 0.1431 0.9897 -26.2693 20.7219)" fill="#362A14" cx="130.957" cy="193.027" rx="0.87" ry="1.191"/>
				<path fill="#CC7667" d="M135.896,202.485c-0.137-0.02-0.246-0.136-0.251-0.279c-0.006-0.163,0.12-0.298,0.282-0.305
					c0.611-0.023,1.242-0.299,1.777-0.777c0.451-0.403,0.842-0.95,1.197-1.67c0.072-0.146,0.247-0.204,0.393-0.134
					c0.146,0.072,0.206,0.248,0.134,0.394c-0.39,0.79-0.825,1.394-1.333,1.848c-0.636,0.569-1.398,0.898-2.146,0.927
					C135.932,202.488,135.914,202.487,135.896,202.485z"/>
			</g>
			<g>
				<path fill="#ECB58C" d="M153.016,190.284c0.941-1.067,2.292-1.867,3.757-1.723c1.443,0.142,2.568,1.146,2.913,2.55
					c0.231,0.944,0.133,1.939-0.057,2.893c-0.199,1.002-0.5,1.992-0.998,2.885c-0.938,1.684-2.864,3.201-4.893,2.491
					c-2.704-0.946-2.836-4.3-2.118-6.625C151.889,191.884,152.376,191.009,153.016,190.284z"/>
				<path fill="#C89978" d="M156.795,190.976c-1.233,0.135-2.096,1.136-2.619,2.184c-0.542,1.084-0.826,2.282-0.829,3.495
					c-0.001,0.32,0.498,0.349,0.499,0.027c0.002-0.959,0.194-1.911,0.558-2.798c0.013-0.003,0.025-0.003,0.039-0.009
					c0.648-0.302,1.396-0.394,2.097-0.247c0.132,0.028,0.27-0.022,0.315-0.16c0.039-0.117-0.027-0.287-0.16-0.315
					c-0.672-0.141-1.358-0.102-2.006,0.103c0.469-0.875,1.171-1.677,2.212-1.792C157.22,191.429,157.112,190.941,156.795,190.976z"
					/>
			</g>
		</g>
		<g>
			<path fill="#363385" d="M112.042,235.582h-12.017c-0.289,0-0.639-0.234-0.781-0.523l-10.595-20.087
				c-0.552-1.061,0.405-0.994,0.693-0.994h12.018c0.289,0,0.638,0.234,0.781,0.522l10.166,20.559
				C112.448,235.347,112.33,235.582,112.042,235.582z"/>
			<path fill="#4B499E" d="M111.633,236.101H99.616c-0.289,0-0.639-0.234-0.781-0.523L88.669,215.02
				c-0.143-0.289-0.024-0.522,0.265-0.522h12.017c0.289,0,0.638,0.234,0.781,0.522l10.166,20.559
				C112.04,235.867,111.922,236.101,111.633,236.101z"/>
		</g>
		<g>
			<g>
				<g>
					<path fill="#EDBB95" d="M117.256,233.264c0,0-11.417-12.573-16.068-9.596c-4.749,3.039-0.496,15.743,1.025,16.494
						c1.644,0.812,10.716,2.063,10.716,2.063L117.256,233.264z"/>
					<path fill="#EDBB95" d="M117.256,233.264c0,0-1.36-9.985-3.321-10.151c-1.962-0.166-2.13,5.961-2.13,5.961L117.256,233.264z"/>
				</g>
				<polygon fill="#EDBB95" points="117.256,233.264 123.986,236.828 118.469,245.758 112.929,242.224 				"/>
			</g>
			<g>
				<g>
					<g>
						<path fill="#FFA6A6" d="M171.918,218.707c4.648,1.925,7.526,7.784,5.348,12.319c-5.576,11.615-17.033,30.925-25.922,32.893
							c-11.26,2.494-36.925-16.533-36.925-16.533c-1.292-3.481,5.301-11.69,8.863-12.739c0,0,18.447,10.29,22.866,9.332
							c1.501-0.325,10.066-11.734,14.51-20.972C162.676,218.812,167.618,216.925,171.918,218.707L171.918,218.707z"/>
					</g>
				</g>
			</g>
			<path fill="#DEC3CE" d="M173.798,233.642c-1.823,8.299-7.212,15.118-13.053,21.042c-1.752,1.777-3.558,3.499-5.364,5.221
				c-0.492,0.469,0.254,1.214,0.746,0.745c6.273-5.98,12.729-12.171,16.438-20.15c0.98-2.108,1.751-4.306,2.25-6.578
				C174.96,233.261,173.944,232.979,173.798,233.642z"/>
		</g>
	</g>
	<g>
		<g>
			<g>
				<path fill="#ECB58C" d="M391.862,442.925l-24.739-18.815c1.107-3.837,3.384-5.218,4.828-5.713
					c0.759-0.273,1.296-0.284,1.296-0.284l9.993,7.6c0,0,1.181,1.497,2.72,3.51c2.698,3.531,6.524,8.665,7.094,10.088
					C393.938,441.534,391.862,442.925,391.862,442.925z"/>
			</g>
		</g>
		<path fill="#1C1A38" d="M391.862,442.925l-24.739-18.815c1.107-3.837,3.384-5.218,4.828-5.713
			c0.031,0.274,0.031,0.569,0.031,0.854c0.021,1.139,0.327,2.245,0.833,3.258c0.59,1.17,1.444,2.224,2.467,3.046
			c2.329,1.865,5.302,2.709,8.222,3.257c0.812,0.147,1.634,0.285,2.456,0.411c2.698,3.531,6.524,8.665,7.094,10.088
			C393.938,441.534,391.862,442.925,391.862,442.925z"/>
		<path fill="#ECB58C" d="M378.427,322.083c0,0,21.29,47.377,21.284,48.594c-0.007,1.12-26.444,47.449-26.444,47.449
			s1.891,7.319,9.802,7.454c0,0,41.812-48.578,41.812-55.802c0-10.09-17.365-52.118-17.365-52.118L378.427,322.083z"/>
		<g>
			<g>
				<path fill="#ECB58C" d="M385.865,442.904l-31.074,0.021c-1.37-3.521-0.569-5.935,0.231-7.263
					c0.495-0.812,1.002-1.223,1.002-1.223l12.554-0.011c0,0,2.898,0.749,6.251,1.687c4.005,1.128,8.675,2.509,9.792,3.184
					C386.676,440.543,385.865,442.904,385.865,442.904z"/>
			</g>
		</g>
		<path fill="#1C1A38" d="M385.865,442.904l-31.074,0.021c-1.37-3.521-0.569-5.935,0.231-7.263c2.478,2.593,6.198,3.826,9.793,3.721
			c1.401-0.042,2.793-0.273,4.142-0.653c1.213-0.337,2.394-0.79,3.521-1.328c0.579-0.284,1.138-0.579,1.696-0.896
			c0.211-0.116,0.422-0.264,0.654-0.391c4.005,1.128,8.675,2.509,9.792,3.184C386.676,440.543,385.865,442.904,385.865,442.904z"/>
		<path fill="#ECB58C" d="M354.992,314.654l1.03,119.784c0,0,6.707,2.226,12.628-0.011l12.913-119.773H354.992z"/>
		<polygon fill="#ECB58C" points="396.305,230.216 400.889,274.452 415.191,305.827 405.52,310.268 388.143,276.015 		"/>
		<path fill="#4B499E" d="M397.012,232.086c0,0,2.235,17.528,5.244,42.18l7.92,13.769c0,0-4.452,6.701-14.307,7.729l-14.307-38.616
			L397.012,232.086z"/>
		<g>
			<path fill="#ECB58C" d="M405.52,310.268c0,0,0.621,9.314,1.354,10.048c2.277,2.278,15.26,2.201,16.067-0.953
				c0.807-3.155-7.751-13.536-7.751-13.536L405.52,310.268z"/>
			<path fill="#ECB58C" d="M415.191,306.303c0,0,8.68,0.44,8.289,2.592c-0.392,2.152-6.97,1.859-6.97,1.859L415.191,306.303z"/>
		</g>
		<path fill="#1C1A38" d="M404.679,197.022c0.223,4.384,2.256,8.513,3.685,12.6c1.13,3.23,2.068,6.581,2.087,10.002
			c0.048,8.898-7.369,15.052-15.463,17.082c-6.696,1.679-13.717,1.076-20.616,0.844c-6.898-0.232-14.086-0.019-20.251,3.088
			c-2.084,1.051-4.016,2.417-6.197,3.247c-2.183,0.83-4.767,1.053-6.758-0.166c-1.746-1.068-2.725-3.038-3.354-4.986
			c-1.631-5.057-1.453-10.677,0.494-15.621c1.947-4.944,5.649-9.176,10.291-11.763c3.329-1.856,7.06-2.863,10.523-4.456
			c3.463-1.592,6.822-3.977,8.259-7.508c0.938-2.306,0.865-4.822,1.328-7.232c0.584-3.045,1.894-6.105,4.075-8.41
			c2.587-2.732,6.248-3.861,9.711-5.056c3.006-1.037,6.024-2.11,9.172-2.563c3.632-0.522,7.701-0.08,10.752,2.103
			c1.865,1.334,3.284,3.376,3.75,5.634c0.738,3.584-1.233,7.517-1.474,11.153C404.648,195.7,404.645,196.368,404.679,197.022z"/>
		<g>
			<g>
				<g>
					<path fill="#4B499E" d="M349.808,360.736c34.604-1.884,46.486-15.497,74.834-11.64c0,0-26.543-51.739-26.75-52.479
						c-0.206-0.735-4.707-27.506-3.783-29.418c9.391-19.442,5.042-29.804,4.52-31.86c-2.191-8.628-18.268-12.191-22.436-12.071
						c-2.49,0.071-14.979-0.319-21.989,9.952c-1.903,2.788,2.5,21.162,0.702,37.955c-0.805,7.52-1.76,28.153-2.631,37.515
						C350.706,325.57,349.808,360.736,349.808,360.736z"/>
				</g>
			</g>
		</g>
		<path fill="#6462BF" d="M387.504,347.322c-4.23-7.665-6.18-16.469-5.604-25.203c0.043-0.651-0.972-0.649-1.014,0
			c-0.587,8.907,1.43,17.901,5.741,25.715C386.944,348.405,387.82,347.894,387.504,347.322z"/>
		<path fill="#6462BF" d="M372.664,271.57c-4.878,3.024-10.186,5.281-15.748,6.697c-0.632,0.161-0.363,1.139,0.27,0.978
			c5.642-1.437,11.043-3.732,15.99-6.799C373.729,272.102,373.22,271.225,372.664,271.57z"/>
		<g>
			<path fill="#ECB58C" d="M375.678,195.631c-0.938,10.684-3.396,29.597-3.396,29.597c2.482,4.232,11.577,3.542,11.346,2.117
				c-0.131-0.807,0.039-2.214,0.489-3.489c0.349-0.988,0.869-1.896,1.544-2.382c0.281-0.202,0.784-0.274,1.442-0.292
				c0.106,0.002,0.164,0,0.164,0c3.009-0.023,8.865,1.028,11.353-2.657c3.094-4.582,3.231-17.202,2.795-23.277
				c-0.254-3.475-3.325-8.304-9.36-9.267C384.676,184.801,376.62,184.88,375.678,195.631z"/>
			<path fill="#1C1A38" d="M377.281,201.792c-1.84,0.311-3.947,0.386-5.333-0.863c-1.297-1.17-1.516-3.126-1.344-4.864
				c0.526-5.304,4.009-10.138,8.713-12.643c4.705-2.505,10.478-2.74,15.508-0.978c1.283,0.449,2.545,1.036,3.547,1.954
				c0.774,0.71,1.33,1.599,1.604,2.613c0.259,0.955,0.182,1.389-0.509,2.117c-1.446,1.524-2.986,2.96-4.614,4.29
				c-3.255,2.66-6.877,4.899-10.788,6.457C381.877,200.745,379.603,201.399,377.281,201.792z"/>
			<path fill="#F8E8D3" d="M376.621,218.307c2.625,1.231,5.415,2.063,8.286,2.468c0.328,0.046,0.255,0.556-0.074,0.51
				c-2.913-0.411-5.755-1.256-8.419-2.506C376.114,218.638,376.319,218.165,376.621,218.307z"/>
			<g>
				
					<ellipse transform="matrix(-0.9897 -0.1432 0.1432 -0.9897 764.7501 468.0973)" fill="#E7998A" cx="399.219" cy="206.53" rx="1.829" ry="1.134"/>
				
					<ellipse transform="matrix(-0.9897 -0.1432 0.1432 -0.9897 746.6581 464.137)" fill="#E7998A" cx="390.031" cy="205.2" rx="1.829" ry="1.134"/>
				<path fill="#C89978" d="M394.339,207.028c0.25-0.052,0.509-0.035,0.727,0.105c0.203,0.131,0.31,0.382,0.308,0.618
					c-0.003,0.243-0.108,0.477-0.277,0.651c-0.177,0.181-0.39,0.302-0.616,0.41c-0.122,0.058-0.291-0.016-0.336-0.142
					c-0.049-0.138,0.012-0.274,0.143-0.335c0.04-0.02,0.081-0.039,0.12-0.06c0.021-0.01,0.04-0.021,0.06-0.032
					c-0.049,0.026,0.016-0.009,0.021-0.012c0.074-0.045,0.144-0.096,0.208-0.154c0.007-0.006,0.015-0.014,0.021-0.02
					c0.015-0.016,0.028-0.032,0.042-0.049c0.013-0.017,0.025-0.035,0.038-0.052c0.003-0.003,0.002-0.003,0.004-0.005
					c0-0.001,0,0,0.001-0.002c0.017-0.038,0.033-0.074,0.049-0.113c0.002-0.007,0.003-0.014,0.005-0.021
					c0.003-0.019,0.006-0.038,0.007-0.057c0.001-0.004,0.001-0.004,0.001-0.007c0.001-0.014-0.004-0.036-0.005-0.045
					c-0.002-0.014-0.004-0.03-0.008-0.044c-0.004-0.006-0.007-0.013-0.008-0.017c-0.002-0.004-0.012-0.023-0.018-0.037
					c-0.004-0.006-0.008-0.012-0.013-0.018c-0.004-0.004-0.007-0.009-0.011-0.013c-0.01-0.008-0.037-0.03-0.038-0.03
					c0.036,0.032,0.005,0.002-0.015-0.006c-0.015-0.007-0.031-0.013-0.047-0.018c-0.008-0.001-0.017-0.002-0.026-0.004
					c-0.021-0.003-0.042-0.004-0.063-0.007c-0.006,0-0.005-0.001-0.008-0.001c-0.003,0-0.002,0.001-0.009,0.001
					c-0.018,0.002-0.036,0.002-0.054,0.004c-0.046,0.004-0.092,0.012-0.138,0.022c-0.132,0.027-0.277-0.093-0.288-0.224
					C394.104,207.167,394.198,207.058,394.339,207.028z"/>
				<path fill="#362A14" d="M393.838,202.847c-0.094,0-0.181-0.06-0.21-0.155c-0.063-0.207-0.121-0.396-0.212-0.566
					c-0.066-0.122-0.18-0.286-0.347-0.376c-0.219-0.118-0.521-0.103-0.812,0.04c-0.288,0.143-0.529,0.381-0.765,0.611
					c-0.086,0.085-0.227,0.084-0.314-0.003c-0.086-0.087-0.084-0.229,0.004-0.314c0.246-0.243,0.526-0.518,0.879-0.692
					c0.418-0.206,0.875-0.217,1.218-0.033c0.21,0.113,0.393,0.306,0.528,0.558c0.111,0.208,0.179,0.429,0.244,0.641
					c0.036,0.118-0.029,0.245-0.146,0.281C393.882,202.844,393.861,202.847,393.838,202.847z"/>
				<path fill="#362A14" d="M398.969,203.674c-0.086,0-0.167-0.049-0.204-0.132c-0.134-0.301-0.271-0.611-0.487-0.849
					c-0.212-0.235-0.49-0.364-0.738-0.335c-0.189,0.022-0.354,0.133-0.461,0.223c-0.151,0.128-0.28,0.291-0.405,0.448
					c-0.076,0.097-0.216,0.112-0.313,0.036s-0.112-0.216-0.035-0.313c0.131-0.166,0.281-0.354,0.467-0.511
					c0.218-0.185,0.458-0.297,0.695-0.325c0.396-0.047,0.809,0.134,1.12,0.479c0.264,0.29,0.424,0.649,0.564,0.967
					c0.049,0.112-0.001,0.244-0.113,0.293C399.03,203.668,399,203.674,398.969,203.674z"/>
				<path fill="#1C1A38" d="M399.93,199.76c-0.705-0.741-1.778-1.022-2.757-0.725c-0.252,0.076-0.145,0.472,0.108,0.395
					c0.846-0.257,1.75-0.02,2.358,0.62C399.823,200.241,400.112,199.951,399.93,199.76z"/>
				<path fill="#1C1A38" d="M394.606,198.629c-0.824-0.672-1.954-0.757-2.883-0.252c-0.098,0.053-0.105,0.205-0.046,0.286
					c0.071,0.099,0.188,0.099,0.286,0.046c0.764-0.416,1.714-0.309,2.383,0.236C394.55,199.112,394.811,198.796,394.606,198.629z"/>
				<path fill="#CC7667" d="M393.002,212.569c-0.036,0.006-0.073,0.005-0.11-0.003c-1.277-0.276-2.435-0.985-3.26-1.996
					c-0.103-0.125-0.084-0.31,0.041-0.413c0.124-0.101,0.311-0.083,0.413,0.042c0.741,0.908,1.782,1.545,2.93,1.793
					c0.158,0.034,0.259,0.191,0.225,0.349C393.215,212.462,393.118,212.549,393.002,212.569z"/>
			</g>
			<g>
				<path fill="#ECB58C" d="M376.855,200.716c-0.9-1.021-2.191-1.786-3.593-1.648c-1.381,0.135-2.457,1.096-2.786,2.439
					c-0.222,0.903-0.127,1.854,0.055,2.766c0.19,0.958,0.479,1.905,0.954,2.759c0.896,1.611,2.739,3.061,4.68,2.382
					c2.586-0.904,2.712-4.112,2.025-6.336C377.933,202.247,377.466,201.41,376.855,200.716z"/>
				<path fill="#C89978" d="M373.24,201.378c1.18,0.129,2.005,1.086,2.505,2.088c0.519,1.038,0.79,2.182,0.793,3.342
					c0.001,0.306-0.476,0.334-0.477,0.026c-0.002-0.918-0.186-1.827-0.533-2.676c-0.013-0.004-0.024-0.003-0.037-0.009
					c-0.62-0.289-1.335-0.377-2.006-0.236c-0.126,0.026-0.258-0.021-0.302-0.153c-0.036-0.112,0.026-0.274,0.153-0.301
					c0.643-0.135,1.299-0.097,1.918,0.098c-0.448-0.837-1.119-1.604-2.115-1.713C372.833,201.811,372.937,201.345,373.24,201.378z"
					/>
			</g>
		</g>
		<path fill="#ECB58C" d="M354.204,233.219c0,0-18.264,31.629-11.201,40.742s45.185-11.088,45.185-11.088l-2.885-9.073
			c0,0-29.175,8.183-29.618,8.011C354.543,261.368,354.204,233.219,354.204,233.219z"/>
		<path fill="#4B499E" d="M368.43,257.147c0,0,5.649,7.145,5.576,14.027c0,0-22.157,12.238-31.988,4.755s10.7-40.781,12.186-42.71
			l3.809,25.102L368.43,257.147z"/>
		<g>
			<path fill="#1C1A38" d="M386.909,256.171h11.493c0.276,0,0.61-0.224,0.747-0.5l10.134-19.21c0.528-1.014-0.388-0.951-0.664-0.951
				h-11.493c-0.275,0-0.61,0.224-0.747,0.5l-9.722,19.661C386.52,255.948,386.633,256.171,386.909,256.171z"/>
			<path fill="#423E67" d="M387.299,256.668h11.493c0.276,0,0.61-0.224,0.747-0.5l9.723-19.662c0.136-0.276,0.023-0.5-0.253-0.5
				h-11.493c-0.276,0-0.61,0.224-0.747,0.5l-9.722,19.662C386.911,256.445,387.024,256.668,387.299,256.668z"/>
		</g>
		<g>
			<path fill="#ECB58C" d="M388.187,262.874c0,0,8.667-1.728,9.321-2.211c0.655-0.484,4.215-12.815,1.795-13.328
				c-2.421-0.513-14.001,6.466-14.001,6.466L388.187,262.874z"/>
			<path fill="#ECB58C" d="M385.302,253.8c0,0,1.396-6.617,5.648-6.812l-2.456,4.965L385.302,253.8z"/>
		</g>
	</g>
	<g>
		<g>
			<g>
				<circle fill="#B73535" cx="338.879" cy="149.743" r="17.671"/>
				<path opacity="0.3" fill="#FFFFFF" d="M347.191,140.854c-6.382-4.387-9.964,3.904-9.964,3.904s-7.825-4.51-10.323,2.82
					c-2.518,7.391,15.79,13.672,15.79,13.672S353.625,145.277,347.191,140.854z"/>
			</g>
			<g>
				<circle fill="#B73535" cx="382.396" cy="77.286" r="11.208"/>
				<path opacity="0.3" fill="#FFFFFF" d="M389.794,75.085c-2.087-4.447-6.705-1.057-6.705-1.057s-2.838-4.977-6.554-1.765
					c-3.747,3.238,4.26,12.544,4.26,12.544S391.898,79.568,389.794,75.085z"/>
			</g>
			<g>
				<circle fill="#B73535" cx="170.603" cy="113.519" r="15.098"/>
				<path opacity="0.3" fill="#FFFFFF" d="M180.568,110.553c-2.811-5.99-9.032-1.423-9.032-1.423s-3.822-6.704-8.829-2.377
					c-5.047,4.362,5.739,16.898,5.739,16.898S183.402,116.592,180.568,110.553z"/>
			</g>
			<g>
				<circle fill="#B73535" cx="75.988" cy="86.342" r="12.619"/>
				<path opacity="0.3" fill="#FFFFFF" d="M82.743,80.875c-4.081-3.733-7.432,1.778-7.432,1.778s-5.09-3.962-7.579,0.976
					c-2.51,4.979,9.819,11.228,9.819,11.228S86.857,84.638,82.743,80.875z"/>
			</g>
			<g>
				<circle fill="#B73535" cx="139.239" cy="46.456" r="15.098"/>
				<path opacity="0.3" fill="#FFFFFF" d="M145.672,38.287c-5.75-3.274-8.2,4.044-8.2,4.044s-6.988-3.274-8.584,3.147
					c-1.61,6.475,14.431,10.499,14.431,10.499S151.47,41.588,145.672,38.287z"/>
			</g>
		</g>
		<g>
			<g>
				<g>
					<path fill="#FFA6A6" d="M444.043,145.969c-15.625,0-28.292,12.667-28.292,28.292c0,7.605,3.007,14.503,7.889,19.587
						l-3.678,8.704l10.415-3.519c4.052,2.24,8.709,3.519,13.666,3.519c15.625,0,28.292-12.667,28.292-28.292
						S459.668,145.969,444.043,145.969z"/>
					<g>
						<circle fill="#F95F5F" cx="431.775" cy="174.261" r="2.382"/>
						<circle fill="#F95F5F" cx="444.043" cy="174.261" r="2.382"/>
						<circle fill="#F95F5F" cx="456.312" cy="174.261" r="2.382"/>
					</g>
				</g>
			</g>
			<g>
				<g>
					<path fill="#FFA6A6" d="M55.956,132.718c15.625,0,28.292,12.667,28.292,28.292c0,7.605-3.006,14.504-7.889,19.588l3.678,8.704
						l-10.415-3.519c-4.052,2.24-8.709,3.519-13.667,3.519c-15.625,0-28.292-12.667-28.292-28.292S40.331,132.718,55.956,132.718z"
						/>
					<g>
						<circle fill="#F95F5F" cx="68.225" cy="161.01" r="2.382"/>
						<circle fill="#F95F5F" cx="55.956" cy="161.01" r="2.382"/>
						<circle fill="#F95F5F" cx="43.688" cy="161.01" r="2.382"/>
					</g>
				</g>
			</g>
			<g>
				<g>
					<g>
						<path fill="#FFA6A6" d="M103.157,107.056c-10.249,0-18.557,8.309-18.557,18.558c0,4.988,1.972,9.513,5.174,12.848
							l-2.413,5.709l6.832-2.308c2.658,1.469,5.712,2.308,8.964,2.308c10.249,0,18.558-8.309,18.558-18.557
							C121.715,115.365,113.406,107.056,103.157,107.056z"/>
					</g>
					<g>
						<circle fill="#F95F5F" cx="95.11" cy="125.614" r="1.563"/>
						<circle fill="#F95F5F" cx="103.157" cy="125.614" r="1.563"/>
						<circle fill="#F95F5F" cx="111.205" cy="125.614" r="1.563"/>
					</g>
				</g>
			</g>
			<g>
				<g>
					<g>
						<path fill="#FFA6A6" d="M415.751,110.123c8.556,0,15.491,6.936,15.491,15.491c0,4.164-1.646,7.941-4.319,10.725l2.015,4.766
							l-5.703-1.926c-2.219,1.227-4.769,1.926-7.483,1.926c-8.556,0-15.491-6.936-15.491-15.491
							C400.26,117.058,407.196,110.123,415.751,110.123z"/>
					</g>
					<g>
						<circle fill="#F95F5F" cx="422.469" cy="125.614" r="1.304"/>
						<circle fill="#F95F5F" cx="415.751" cy="125.614" r="1.304"/>
						<circle fill="#F95F5F" cx="409.034" cy="125.614" r="1.304"/>
					</g>
				</g>
			</g>
		</g>
	</g>
	<rect x="80.173" y="442.662" fill="#1C1A38" width="357.687" height="1.465"/>
</g>
</svg>
